# xmcd
# 
# Track frame offsets:
#     150
#     21117
#     42472
# 
# Disc length: 690
# 
# Revision: 2
# Processed by: cddbd v1.5.2PL0 Copyright (c) Steve Scherf et al.
# Submitted via: fre:ac v1.0.17
# 
DISCID=1e02b003
DTITLE=矢野顕子 - 春咲小紅[新録音]
DYEAR=0
DGENRE=Pop
TTITLE0=春咲小紅
TTITLE1=ひとつだけ
TTITLE2=サッちゃん
EXTD=
EXTT0=
EXTT1=
EXTT2=
PLAYORDER=
